<?xml version="1.0" standalone="no"?>
<!DOCTYPE svg PUBLIC "-//W3C//DTD SVG 20010904//EN"
 "http://www.w3.org/TR/2001/REC-SVG-20010904/DTD/svg10.dtd">
<svg version="1.0" xmlns="http://www.w3.org/2000/svg"
 width="158.000000pt" height="143.000000pt" viewBox="0 0 158.000000 143.000000"
 preserveAspectRatio="xMidYMid meet">

<g transform="translate(0.000000,143.000000) scale(0.100000,-0.100000)"
fill="#FFFFFF" stroke="none">
<path d="M710 1104 c-69 -30 -96 -71 -117 -179 -18 -98 -17 -119 13 -154 l26
-31 152 0 c169 0 189 6 204 63 9 37 -12 176 -33 216 -18 35 -64 77 -98 90 -40
15 -106 13 -147 -5z"/>
<path d="M218 981 c-56 -8 -57 -10 -92 -77 -23 -43 -25 -55 -16 -80 6 -15 9
-38 6 -50 -10 -38 11 -74 51 -90 26 -12 62 -15 126 -12 84 3 90 4 116 34 24
27 27 37 25 90 -3 72 -13 124 -27 142 -18 23 -85 52 -114 51 -15 -1 -49 -5
-75 -8z"/>
<path d="M1147 953 c-14 -14 -6 -42 18 -61 22 -17 24 -24 15 -47 -15 -38 -12
-66 8 -104 20 -38 73 -71 112 -71 96 0 157 115 116 215 -24 57 -66 75 -172 75
-50 0 -94 -3 -97 -7z"/>
<path d="M660 679 c-111 -20 -216 -86 -246 -156 -8 -18 -14 -64 -14 -103 l0
-70 385 0 385 0 0 72 c0 127 -56 197 -194 240 -72 23 -236 32 -316 17z"/>
<path d="M182 599 c-55 -10 -120 -47 -143 -79 -12 -17 -19 -47 -21 -95 l-3
-70 141 -3 141 -3 6 85 c3 46 13 101 21 121 9 20 13 41 10 46 -6 11 -93 10
-152 -2z"/>
<path d="M1238 605 c-3 -3 3 -29 13 -58 11 -31 18 -81 19 -124 l0 -73 145 0
145 0 0 60 c0 106 -46 160 -158 186 -56 14 -154 19 -164 9z"/>
</g>
</svg>
