<svg xmlns="http://www.w3.org/2000/svg" xmlns:xlink="http://www.w3.org/1999/xlink" width="1920" zoomAndPan="magnify" viewBox="0 0 1440 809.999993" height="1080" preserveAspectRatio="xMidYMid meet" version="1.0"><defs><g/></defs><g fill="#ffffff" fill-opacity="1"><g transform="translate(321.236124, 440.117763)"><g><path d="M 136.171875 -59.046875 C 136.171875 -62.054688 135.175781 -64.550781 133.1875 -66.53125 C 131.207031 -68.519531 128.710938 -69.515625 125.703125 -69.515625 L 33.8125 -69.515625 C 30.875 -69.515625 28.390625 -68.519531 26.359375 -66.53125 C 24.335938 -64.550781 23.328125 -62.054688 23.328125 -59.046875 L 23.328125 0 L 9.515625 0 L 9.515625 -59.046875 C 9.515625 -63.722656 10.566406 -67.882812 12.671875 -71.53125 C 14.773438 -75.1875 17.648438 -78.066406 21.296875 -80.171875 C 24.953125 -82.273438 29.125 -83.328125 33.8125 -83.328125 L 125.703125 -83.328125 C 130.378906 -83.328125 134.539062 -82.273438 138.1875 -80.171875 C 141.84375 -78.066406 144.722656 -75.1875 146.828125 -71.53125 C 148.929688 -67.882812 149.984375 -63.722656 149.984375 -59.046875 L 149.984375 0 L 136.171875 0 Z M 136.171875 -59.046875 "/></g></g></g><g fill="#ffffff" fill-opacity="1"><g transform="translate(480.738158, 440.117763)"><g><path d="M 9.515625 -59.046875 C 9.515625 -63.722656 10.566406 -67.882812 12.671875 -71.53125 C 14.773438 -75.1875 17.648438 -78.066406 21.296875 -80.171875 C 24.953125 -82.273438 29.125 -83.328125 33.8125 -83.328125 L 149.984375 -83.328125 L 149.984375 -69.515625 L 33.8125 -69.515625 C 30.875 -69.515625 28.390625 -68.519531 26.359375 -66.53125 C 24.335938 -64.550781 23.328125 -62.054688 23.328125 -59.046875 L 23.328125 -48.5625 L 149.984375 -48.5625 L 149.984375 -34.75 L 23.328125 -34.75 L 23.328125 -24.28125 C 23.328125 -21.34375 24.335938 -18.863281 26.359375 -16.84375 C 28.390625 -14.820312 30.875 -13.8125 33.8125 -13.8125 L 149.984375 -13.8125 L 149.984375 0 L 33.8125 0 C 29.125 0 24.953125 -1.050781 21.296875 -3.15625 C 17.648438 -5.257812 14.773438 -8.132812 12.671875 -11.78125 C 10.566406 -15.4375 9.515625 -19.601562 9.515625 -24.28125 Z M 9.515625 -59.046875 "/></g></g></g><g fill="#ffffff" fill-opacity="1"><g transform="translate(640.240192, 440.117763)"><g><path d="M 136.171875 -83.328125 L 149.984375 -83.328125 L 149.984375 -59.046875 C 149.984375 -51.898438 147.679688 -46.101562 143.078125 -41.65625 C 147.679688 -37.21875 149.984375 -31.425781 149.984375 -24.28125 L 149.984375 0 L 136.171875 0 L 136.171875 -24.28125 C 136.171875 -27.300781 135.175781 -29.800781 133.1875 -31.78125 C 131.207031 -33.757812 128.710938 -34.75 125.703125 -34.75 L 33.8125 -34.75 C 30.875 -34.75 28.390625 -33.757812 26.359375 -31.78125 C 24.335938 -29.800781 23.328125 -27.300781 23.328125 -24.28125 L 23.328125 0 L 9.515625 0 L 9.515625 -24.28125 C 9.515625 -31.425781 11.816406 -37.21875 16.421875 -41.65625 C 11.816406 -46.101562 9.515625 -51.898438 9.515625 -59.046875 L 9.515625 -83.328125 L 23.328125 -83.328125 L 23.328125 -59.046875 C 23.328125 -56.109375 24.335938 -53.625 26.359375 -51.59375 C 28.390625 -49.570312 30.875 -48.5625 33.8125 -48.5625 L 125.703125 -48.5625 C 128.710938 -48.5625 131.207031 -49.570312 133.1875 -51.59375 C 135.175781 -53.625 136.171875 -56.109375 136.171875 -59.046875 Z M 136.171875 -83.328125 "/></g></g></g><g fill="#ffffff" fill-opacity="1"><g transform="translate(799.742242, 440.117763)"><g><path d="M 136.171875 -83.328125 L 149.984375 -83.328125 L 149.984375 -24.28125 C 149.984375 -19.601562 148.929688 -15.4375 146.828125 -11.78125 C 144.722656 -8.132812 141.84375 -5.257812 138.1875 -3.15625 C 134.539062 -1.050781 130.378906 0 125.703125 0 L 33.8125 0 C 29.125 0 24.953125 -1.050781 21.296875 -3.15625 C 17.648438 -5.257812 14.773438 -8.132812 12.671875 -11.78125 C 10.566406 -15.4375 9.515625 -19.601562 9.515625 -24.28125 L 9.515625 -83.328125 L 23.328125 -83.328125 L 23.328125 -24.28125 C 23.328125 -21.34375 24.335938 -18.863281 26.359375 -16.84375 C 28.390625 -14.820312 30.875 -13.8125 33.8125 -13.8125 L 125.703125 -13.8125 C 128.710938 -13.8125 131.207031 -14.820312 133.1875 -16.84375 C 135.175781 -18.863281 136.171875 -21.34375 136.171875 -24.28125 Z M 136.171875 -83.328125 "/></g></g></g><g fill="#ffffff" fill-opacity="1"><g transform="translate(959.244261, 440.117763)"><g><path d="M 125.703125 -48.5625 C 130.378906 -48.5625 134.539062 -47.507812 138.1875 -45.40625 C 141.84375 -43.300781 144.722656 -40.425781 146.828125 -36.78125 C 148.929688 -33.132812 149.984375 -28.96875 149.984375 -24.28125 C 149.984375 -19.601562 148.929688 -15.4375 146.828125 -11.78125 C 144.722656 -8.132812 141.84375 -5.257812 138.1875 -3.15625 C 134.539062 -1.050781 130.378906 0 125.703125 0 L 13.09375 0 L 13.09375 -13.8125 L 125.703125 -13.8125 C 128.710938 -13.8125 131.207031 -14.820312 133.1875 -16.84375 C 135.175781 -18.863281 136.171875 -21.34375 136.171875 -24.28125 C 136.171875 -27.300781 135.175781 -29.800781 133.1875 -31.78125 C 131.207031 -33.757812 128.710938 -34.75 125.703125 -34.75 L 33.8125 -34.75 C 29.125 -34.75 24.953125 -35.800781 21.296875 -37.90625 C 17.648438 -40.007812 14.773438 -42.882812 12.671875 -46.53125 C 10.566406 -50.1875 9.515625 -54.359375 9.515625 -59.046875 C 9.515625 -63.722656 10.566406 -67.882812 12.671875 -71.53125 C 14.773438 -75.1875 17.648438 -78.066406 21.296875 -80.171875 C 24.953125 -82.273438 29.125 -83.328125 33.8125 -83.328125 L 146.40625 -83.328125 L 146.40625 -69.515625 L 33.8125 -69.515625 C 30.875 -69.515625 28.390625 -68.519531 26.359375 -66.53125 C 24.335938 -64.550781 23.328125 -62.054688 23.328125 -59.046875 C 23.328125 -56.109375 24.335938 -53.625 26.359375 -51.59375 C 28.390625 -49.570312 30.875 -48.5625 33.8125 -48.5625 Z M 125.703125 -48.5625 "/></g></g></g></svg>