<?xml version="1.0" standalone="no"?>
<!DOCTYPE svg PUBLIC "-//W3C//DTD SVG 20010904//EN"
 "http://www.w3.org/TR/2001/REC-SVG-20010904/DTD/svg10.dtd">
<svg version="1.0" xmlns="http://www.w3.org/2000/svg"
 width="3333.000000pt" height="1000.000000pt" viewBox="0 0 3333.000000 1000.000000"
 preserveAspectRatio="xMidYMid meet">

<g transform="translate(0.000000,1000.000000) scale(0.100000,-0.100000)"
fill="#000000" stroke="none">
<path d="M18317 9828 c-14 -18 -65 -72 -114 -121 -48 -48 -135 -135 -193 -194
-58 -58 -129 -129 -158 -157 -29 -28 -83 -82 -120 -120 -118 -122 -225 -229
-297 -298 -39 -37 -93 -91 -122 -120 -28 -29 -82 -83 -120 -120 -37 -37 -102
-102 -144 -145 -42 -43 -107 -108 -145 -144 -38 -37 -103 -102 -144 -145 -42
-44 -112 -112 -155 -152 -97 -90 -100 -90 -268 5 -31 17 -108 53 -170 80 -61
26 -134 59 -162 74 -81 43 -126 64 -205 99 -41 18 -97 43 -125 56 -27 12 -68
30 -90 40 -22 10 -51 25 -65 34 -14 9 -65 34 -115 55 -49 21 -101 43 -115 50
-109 56 -309 150 -375 177 -44 18 -102 45 -130 59 -125 66 -195 99 -290 137
-36 14 -104 48 -160 80 -20 11 -143 67 -180 81 -11 5 -39 18 -62 29 -24 12
-43 19 -43 17 0 -2 82 -84 182 -182 100 -98 293 -286 428 -418 135 -132 321
-315 415 -406 93 -91 278 -271 410 -400 132 -129 280 -273 328 -319 49 -47 93
-93 98 -102 6 -12 -5 -43 -41 -116 -28 -55 -50 -102 -50 -105 0 -13 -102 -217
-110 -222 -6 -4 -10 -14 -10 -23 0 -9 -9 -28 -20 -42 -11 -14 -20 -31 -20 -39
0 -8 -39 -93 -86 -190 -149 -305 -245 -505 -261 -541 -8 -19 -21 -46 -28 -60
-59 -113 -229 -465 -256 -530 -12 -30 -26 -60 -30 -66 -13 -16 -119 -230 -119
-239 0 -8 -100 -209 -120 -242 -8 -12 -12 -25 -8 -28 7 -7 488 471 488 485 0
6 6 10 13 10 6 0 59 50 117 110 58 61 123 127 145 148 22 20 173 168 335 328
162 160 351 344 419 410 114 109 276 271 360 359 19 19 38 35 43 35 12 0 207
-98 238 -120 25 -18 82 -47 315 -161 72 -35 153 -77 180 -93 103 -60 124 -71
305 -162 102 -51 208 -107 235 -125 28 -18 139 -77 248 -131 109 -54 231 -118
270 -142 40 -23 144 -78 232 -122 88 -43 182 -91 208 -106 46 -27 48 -27 33
-6 -9 13 -105 113 -214 224 -108 110 -300 308 -427 439 -126 131 -284 293
-350 359 -66 67 -224 228 -350 360 -127 131 -269 276 -317 323 -48 47 -90 94
-93 105 -4 12 37 106 120 276 70 141 139 282 153 312 15 30 39 77 54 103 16
26 28 54 28 61 0 8 14 40 31 72 17 33 54 102 80 154 27 52 54 99 59 104 6 6
10 17 10 26 0 19 108 237 121 246 5 3 9 13 9 23 0 10 9 30 20 44 11 14 20 30
20 36 0 11 15 44 117 246 33 66 75 150 92 187 17 37 36 70 41 73 6 3 10 14 10
24 0 10 9 30 20 44 11 14 20 32 20 40 0 15 145 304 161 322 5 5 9 13 9 17 0
17 -19 7 -43 -24z"/>
<path d="M29035 7424 c-158 -11 -320 -44 -480 -96 -49 -16 -103 -35 -120 -43
-16 -7 -59 -25 -95 -41 -279 -122 -526 -329 -667 -559 -135 -219 -201 -438
-210 -695 -11 -299 55 -503 243 -745 184 -239 447 -429 819 -593 85 -37 123
-54 263 -118 31 -15 75 -34 97 -44 51 -23 141 -63 233 -106 41 -19 75 -34 77
-34 2 0 41 -17 87 -38 45 -22 112 -52 148 -68 153 -67 320 -157 383 -205 119
-90 190 -197 217 -326 38 -185 -105 -367 -355 -451 -99 -33 -181 -44 -334 -43
-363 0 -724 130 -1016 364 -27 22 -105 94 -172 160 l-121 120 -371 -329 c-204
-181 -371 -334 -371 -341 0 -19 265 -282 360 -357 214 -170 516 -344 740 -425
19 -7 44 -17 55 -21 93 -37 276 -87 405 -109 362 -64 783 -39 1119 69 132 42
293 113 426 190 261 149 501 425 604 695 13 33 27 69 31 80 5 11 11 31 15 45
3 14 11 41 16 60 51 191 51 429 0 630 -27 108 -95 252 -179 379 -82 125 -269
308 -407 401 -90 60 -310 174 -485 253 -19 8 -79 36 -133 61 -55 25 -100 46
-102 46 -3 0 -149 66 -220 100 -22 10 -80 37 -130 60 -606 276 -793 393 -880
551 -27 49 -30 62 -30 149 0 85 4 101 30 153 71 142 261 254 512 302 165 32
362 12 538 -55 60 -22 248 -119 300 -153 95 -64 202 -153 312 -260 60 -58 107
-97 115 -94 17 7 732 635 736 646 9 27 -265 275 -433 392 -205 143 -446 264
-665 335 -154 49 -213 63 -403 94 -69 11 -411 21 -502 14z"/>
<path d="M1450 4835 l0 -2525 1815 0 1815 0 0 485 0 485 -1325 0 -1325 0 -2
2038 -3 2037 -487 3 -488 2 0 -2525z"/>
<path d="M5420 5714 c0 -1113 3 -1668 11 -1713 50 -312 121 -519 263 -761 156
-268 421 -537 686 -698 141 -85 332 -173 460 -211 353 -104 741 -114 1093 -25
559 139 1065 551 1310 1065 107 225 160 408 197 692 6 50 10 647 10 1687 l0
1610 -485 0 -484 0 -3 -1627 -3 -1628 -27 -99 c-51 -184 -142 -340 -278 -477
-153 -154 -328 -251 -534 -295 -87 -19 -307 -21 -391 -5 -272 54 -501 201
-666 426 -36 51 -71 114 -129 235 -16 35 -50 192 -60 282 -7 65 -10 617 -10
1640 l0 1543 -480 3 -480 2 0 -1646z"/>
<path d="M10270 4835 l0 -2525 485 0 485 0 0 1435 c0 1165 2 1435 13 1435 7 0
26 -24 43 -52 17 -29 75 -125 129 -213 54 -88 136 -223 183 -300 46 -77 101
-167 122 -200 20 -33 69 -112 107 -175 202 -332 437 -715 483 -790 29 -47 65
-105 80 -130 15 -25 51 -83 80 -130 112 -181 135 -218 198 -323 64 -107 66
-108 82 -87 9 12 72 112 140 223 68 111 164 267 213 347 49 80 124 201 167
270 87 142 511 836 544 891 157 267 411 669 420 666 8 -3 12 -384 13 -1433 l3
-1429 485 0 c267 0 485 3 485 8 0 4 0 642 0 1417 l0 1410 -57 -47 c-54 -43
-255 -246 -335 -337 -31 -35 -41 -40 -92 -44 l-56 -5 -50 50 c-39 39 -50 58
-51 84 -4 72 4 106 32 148 16 25 29 52 29 61 0 10 9 29 20 43 11 14 20 32 20
40 0 8 8 25 18 38 10 13 26 50 36 81 10 31 23 61 30 67 10 8 41 71 85 171 6
14 15 32 20 40 29 49 201 410 201 421 0 8 9 28 20 44 11 17 20 40 20 52 0 12
13 37 28 55 16 18 36 59 46 90 10 32 22 60 27 64 5 3 9 234 9 550 l0 544 -402
0 -403 0 -21 -38 c-11 -20 -58 -98 -104 -172 -128 -209 -223 -363 -389 -635
-84 -137 -171 -278 -192 -312 -107 -173 -269 -437 -484 -788 -37 -60 -84 -137
-104 -170 -87 -138 -125 -200 -246 -397 -70 -115 -132 -208 -138 -208 -7 1
-32 33 -56 73 -48 78 -99 161 -160 260 -21 34 -89 145 -152 247 -62 102 -149
244 -193 315 -74 121 -189 309 -275 450 -57 92 -334 544 -424 690 -82 133
-132 214 -197 320 -21 33 -79 129 -131 213 l-92 152 -399 0 -398 0 0 -2525z"/>
<path d="M17980 7094 l0 -266 113 -112 c61 -61 218 -221 347 -355 129 -134
300 -310 379 -390 79 -80 179 -185 222 -233 l79 -88 0 -64 c0 -60 -2 -66 -36
-100 -53 -53 -127 -53 -214 -1 -30 18 -146 78 -258 133 -111 56 -215 110 -230
120 -28 21 -384 202 -395 202 -4 0 -7 -817 -7 -1815 l0 -1815 490 0 490 0 0
1525 c0 918 4 1525 9 1525 10 0 69 -84 446 -630 458 -664 639 -926 760 -1100
67 -96 172 -249 235 -340 62 -91 138 -201 169 -245 151 -218 341 -493 419
-607 l87 -128 398 0 397 0 0 2525 0 2525 -485 0 -485 0 0 -1525 c0 -930 -4
-1525 -9 -1525 -11 0 -25 17 -120 157 -41 59 -109 158 -151 218 -42 61 -152
220 -245 355 -93 135 -208 301 -255 370 -48 69 -190 274 -315 455 -125 182
-272 393 -325 470 -53 77 -164 237 -245 355 -227 330 -343 497 -405 585 l-56
80 -402 3 -402 2 0 -266z"/>
<path d="M22700 5705 c0 -934 4 -1675 9 -1702 5 -26 14 -79 21 -118 13 -76 42
-189 68 -270 36 -112 120 -287 193 -407 287 -463 733 -783 1279 -917 270 -66
651 -60 940 14 164 42 410 144 534 222 250 159 424 313 573 508 192 253 331
575 382 885 29 180 31 275 31 1838 l0 1602 -485 0 -484 0 -3 -1622 -3 -1623
-24 -90 c-107 -405 -417 -705 -815 -791 -94 -21 -318 -21 -411 0 -222 48 -397
146 -553 310 -166 175 -253 364 -282 612 -6 59 -10 626 -10 1647 l0 1557 -480
0 -480 0 0 -1655z"/>
<path d="M16688 6604 c-7 -9 -53 -56 -103 -104 -49 -49 -103 -103 -120 -120
-16 -17 -50 -50 -74 -73 -25 -23 -98 -94 -163 -157 l-118 -116 0 -1862 0
-1862 490 0 490 0 0 2048 c0 1126 -4 2052 -8 2057 -4 6 -47 30 -97 54 -49 24
-108 56 -130 70 -44 29 -139 81 -148 81 -4 0 -12 -7 -19 -16z"/>
<path d="M20925 1656 c-65 -30 -112 -77 -144 -146 l-26 -55 -3 -397 -3 -398
85 0 85 0 3 383 c3 420 2 413 65 454 25 17 71 18 633 18 674 0 637 4 680 -68
19 -30 20 -53 20 -409 l0 -378 86 0 85 0 -3 403 c-3 356 -5 406 -20 440 -30
67 -76 114 -140 146 l-61 31 -646 0 -646 0 -50 -24z"/>
<path d="M22894 1656 c-60 -28 -113 -78 -137 -129 -32 -67 -39 -144 -35 -396
3 -231 5 -249 26 -296 27 -59 82 -118 137 -148 40 -22 42 -22 808 -25 l767 -2
0 85 0 85 -737 0 c-723 0 -739 0 -771 20 -46 28 -63 76 -60 163 l3 72 783 3
783 2 -3 83 -3 82 -782 3 -783 2 0 73 c0 82 18 128 63 161 28 21 38 21 768 24
l739 3 0 79 0 80 -757 0 -758 0 -51 -24z"/>
<path d="M24690 1526 c0 -183 10 -244 50 -307 l31 -47 -31 -48 c-40 -65 -50
-128 -50 -310 l0 -154 85 0 85 0 0 158 c0 173 8 206 63 246 28 21 37 21 637
21 600 0 609 0 637 -21 55 -40 63 -73 63 -246 l0 -158 86 0 86 0 -4 188 c-5
195 -9 218 -55 284 l-26 38 27 40 c43 66 56 136 56 312 l0 158 -85 0 -85 0 0
-155 c0 -171 -8 -206 -55 -243 l-28 -22 -617 0 -617 0 -28 22 c-47 37 -55 72
-55 243 l0 155 -85 0 -85 0 0 -154z"/>
<path d="M26660 1307 c0 -406 5 -449 56 -527 30 -46 101 -96 156 -110 24 -7
267 -10 680 -8 638 3 643 3 683 25 55 30 110 88 137 148 23 49 23 57 26 448
l3 397 -85 0 -86 0 0 -362 c0 -217 -4 -378 -10 -400 -6 -20 -24 -48 -41 -62
l-31 -26 -617 0 -618 0 -28 22 c-53 42 -55 56 -55 458 l0 370 -85 0 -85 0 0
-373z"/>
<path d="M28824 1668 c-59 -19 -127 -80 -159 -143 -26 -51 -30 -69 -29 -139 1
-130 49 -212 156 -265 l61 -31 606 0 c364 0 620 -4 640 -10 105 -30 131 -168
42 -227 l-34 -23 -713 0 -714 0 0 -85 0 -85 725 0 c699 0 726 1 777 20 111 41
179 146 180 276 0 65 -5 85 -32 140 -33 69 -67 100 -146 136 -49 23 -49 23
-680 28 -614 5 -633 6 -654 25 -52 47 -63 108 -30 162 44 72 -6 68 787 71
l713 3 0 79 0 80 -732 -1 c-462 -1 -745 -5 -764 -11z"/>
</g>
</svg>
