<?xml version="1.0" standalone="no"?>
<!DOCTYPE svg PUBLIC "-//W3C//DTD SVG 20010904//EN"
 "http://www.w3.org/TR/2001/REC-SVG-20010904/DTD/svg10.dtd">
<svg version="1.0" xmlns="http://www.w3.org/2000/svg"
 width="283.000000pt" height="112.000000pt" viewBox="0 0 283.000000 112.000000"
 preserveAspectRatio="xMidYMid meet">

<g transform="translate(0.000000,112.000000) scale(0.100000,-0.100000)"
fill="#000000" stroke="none">
<path d="M1512 937 l-72 -72 -96 48 c-53 27 -98 46 -101 44 -2 -3 31 -36 73
-75 l77 -70 -46 -96 c-26 -54 -41 -96 -34 -96 6 0 4 -7 -6 -17 -30 -30 -32 -4
-4 53 18 37 27 70 27 104 0 50 0 50 -33 50 -31 0 -36 -6 -103 -115 l-71 -116
-70 113 c-66 108 -71 113 -106 116 l-37 3 0 -215 0 -216 40 0 c49 0 54 14 48
129 -3 44 -2 85 2 91 4 6 30 -27 61 -79 30 -50 57 -91 61 -91 3 0 33 43 65 95
l58 95 3 -120 3 -120 40 0 40 0 -2 131 c0 71 1 131 3 132 2 1 31 28 64 60 l61
59 84 -44 c46 -23 89 -45 94 -47 6 -2 -23 30 -63 71 l-73 75 45 93 c26 51 45
94 43 96 -2 2 -35 -29 -75 -69z"/>
<path d="M2468 808 c-51 -13 -98 -68 -98 -113 0 -48 40 -90 130 -134 85 -41
105 -65 76 -87 -30 -21 -79 -17 -120 11 l-37 25 -29 -22 c-36 -26 -36 -29 -7
-56 89 -84 252 -63 287 36 14 40 13 46 -5 80 -16 30 -37 46 -110 82 -67 34
-91 50 -93 67 -7 47 78 55 125 11 l23 -22 30 29 30 29 -22 23 c-12 13 -44 30
-72 38 -56 17 -56 17 -108 3z"/>
<path d="M160 611 c0 -110 3 -206 6 -215 5 -14 28 -16 155 -16 l149 0 0 39 c0
22 -5 41 -13 44 -7 2 -56 4 -110 3 l-97 -1 0 172 0 173 -45 0 -45 0 0 -199z"/>
<path d="M500 663 c0 -128 3 -152 21 -190 45 -93 171 -122 254 -58 57 43 65
73 65 245 l0 150 -40 0 -40 0 0 -146 0 -146 -29 -29 c-46 -46 -106 -37 -136
21 -11 22 -15 63 -15 165 l0 135 -40 0 -40 0 0 -147z"/>
<path d="M1570 789 c0 -12 20 -44 45 -71 63 -70 61 -85 -8 -48 l-37 20 0 -155
0 -155 40 0 40 0 0 132 0 132 91 -132 c86 -126 92 -132 125 -132 l34 0 0 215
0 215 -46 0 -46 0 2 -112 c1 -62 1 -119 1 -127 -1 -8 -40 43 -88 112 -82 118
-90 127 -120 127 -27 0 -33 -4 -33 -21z"/>
<path d="M1970 651 c0 -147 2 -160 23 -191 35 -52 70 -73 131 -78 66 -5 125
23 159 78 20 31 22 51 25 193 l4 157 -46 0 -47 0 2 -145 c1 -119 -2 -150 -15
-170 -29 -44 -96 -45 -136 -3 -18 20 -20 35 -20 170 l0 148 -40 0 -40 0 0
-159z"/>
<path d="M1433 723 c-22 -15 -23 -21 -23 -179 l0 -164 40 0 40 0 -2 177 c-3
192 -6 201 -55 166z"/>
<path d="M1807 324 c-4 -4 -7 -25 -7 -47 0 -44 12 -43 18 1 4 35 18 43 67 40
38 -3 40 -4 43 -40 2 -21 8 -38 13 -38 6 0 9 19 7 43 l-3 42 -65 3 c-36 2 -69
0 -73 -4z"/>
<path d="M1977 323 c-14 -13 -7 -71 9 -77 26 -10 124 -7 124 4 0 6 -28 10 -65
10 -87 0 -84 20 3 21 65 2 62 3 -26 15 -58 7 -45 18 31 25 l62 6 -66 1 c-36 1
-69 -1 -72 -5z"/>
<path d="M2140 328 c-5 -20 -3 -79 3 -85 4 -3 7 3 7 15 0 20 5 22 55 22 48 0
57 -3 65 -22 7 -18 9 -13 9 27 -1 28 -3 43 -6 35 -9 -23 -17 -25 -71 -22 -37
3 -52 8 -55 20 -3 10 -6 14 -7 10z"/>
<path d="M2300 297 c0 -18 5 -38 12 -45 16 -16 110 -16 126 0 13 13 17 78 4
78 -4 0 -8 -15 -7 -32 l0 -33 -57 -3 -58 -3 0 36 c0 19 -4 35 -10 35 -5 0 -10
-15 -10 -33z"/>
<path d="M2474 315 c-10 -26 7 -35 67 -35 33 0 59 -4 59 -10 0 -6 -28 -10 -65
-10 -37 0 -65 -4 -65 -10 0 -17 126 -12 140 5 20 24 -1 37 -58 37 -53 0 -88
13 -62 22 8 3 40 7 70 9 53 3 53 3 -13 5 -51 2 -69 -2 -73 -13z"/>
</g>
</svg>
